<?xml version="1.0"?><svg width="464.167" height="531.221" xmlns="http://www.w3.org/2000/svg">
 <g>
  <title>Layer 1</title>
  <g id="g5">
   <path d="m33.263,288.347992c0,134.100006 88.630997,242.855011 197.962997,242.855011c109.297012,0 197.929001,-108.756012 197.929001,-242.855011c0,-134.099991 -88.631989,-242.855991 -197.929001,-242.855991c-109.331001,0 -197.962997,108.756001 -197.962997,242.855991l0,0z" id="path7" stroke-miterlimit="10" stroke-width="0.036" stroke="black" fill-rule="evenodd"/>
   <path d="m37.474998,288.778992c0,131.868011 87.120003,238.824036 194.579994,238.824036c107.460022,0 194.580017,-106.956024 194.580017,-238.824036c0,-131.903992 -87.119995,-238.859993 -194.580017,-238.859993c-107.459991,0 -194.579994,106.956001 -194.579994,238.859993l0,0z" id="path9" stroke-miterlimit="10" stroke-width="0.036" fill-rule="evenodd" fill="#EECFB4"/>
   <path d="m45.143002,234.888c-5.652,-1.440002 -11.34,-1.188004 -17.208002,0.755997c-5.976,1.872009 -13.427999,4.428009 -18.072,10.872009c-4.824,6.40799 -9.54,17.279984 -9.828,27.755997c-0.324,10.548004 4.068,25.631989 8.316,34.415985c4.176001,8.496002 9,13.788025 16.992001,16.848022c7.991999,2.987976 18.072001,3.203979 30.636,0.936981l0,0l-10.835999,-91.584991l0,0z" id="path23" stroke-miterlimit="10" stroke-width="0.036" stroke="black" fill-rule="evenodd"/>
   <path d="m41.651001,333.274994c9.035999,2.772003 15.407997,1.944 19.403999,-2.483002c3.888,-4.608002 5.220001,-10.47699 4.139999,-24.264984c-1.223999,-14.040009 -7.487,-45.360016 -11.015999,-58.392014c-3.672001,-12.888 -6.912003,-19.080002 -10.260002,-18.720001l0,0c-0.323997,3.708008 -1.079998,6.408005 -2.556,8.244003c-1.511997,1.692001 -3.312,1.656006 -6.084,2.520004c-2.952,0.863998 -7.415998,1.007996 -10.907999,2.772003c-3.6,1.763992 -7.056,2.772003 -10.08,7.595993c-3.096001,4.751999 -7.02,12.85199 -7.884,20.843994c-0.936,7.920013 0.756,19.438995 2.447999,26.208008c1.656,6.696014 4.824,10.007996 7.416,13.679993c2.52,3.420013 4.931999,5.76001 7.812,7.451996c2.844,1.584015 6.228001,1.835999 8.891991,2.556c2.484009,0.684998 4.75201,-0.431976 6.264,1.656006c1.368,2.016998 2.304008,5.365021 2.41201,10.332001l0,0z" id="path25" fill-rule="evenodd" fill="#EECFB4"/>
   <path d="m419.002991,236.472c5.615997,-1.440002 11.304016,-1.188004 17.208008,0.755997c5.903992,1.872009 13.320007,4.428009 18.071991,10.872009c4.680023,6.40799 9.540009,17.279999 9.863007,27.755981c0.108002,10.476013 -4.066986,25.70401 -8.35199,34.452026c-4.283997,8.495972 -9.072021,13.823975 -16.992004,16.811981c-8.027008,2.988007 -18.106995,3.20401 -30.636017,0.937012l0,0l10.837006,-91.585007l0,0z" id="path27" stroke-miterlimit="10" stroke-width="0.036" stroke="black" fill-rule="evenodd"/>
   <path d="m422.531006,334.859009c-9.071991,2.843994 -15.444,1.97998 -19.403992,-2.447998c-3.996002,-4.644012 -5.292023,-10.367004 -4.176025,-24.264008c1.115997,-14.040009 7.380005,-45.360016 11.016022,-58.391998c3.600983,-12.924011 6.875977,-19.044006 10.259979,-18.756012l0,0c0.288025,3.708008 1.044006,6.408005 2.557007,8.244003c1.403015,1.656006 3.239014,1.727997 6.084015,2.556c2.879974,0.792007 7.270996,1.008011 10.942993,2.736008c3.492004,1.655991 6.984009,2.843994 10.079987,7.595993c3.024017,4.751999 6.839996,12.852005 7.848999,20.844009c0.828003,7.919983 -0.828003,19.403992 -2.447998,26.243988c-1.729004,6.731018 -4.895996,9.936005 -7.415985,13.644012c-2.628021,3.384003 -5.003998,5.832001 -7.813019,7.488007c-2.915985,1.619995 -6.335999,1.763977 -8.891998,2.519989c-2.59198,0.64801 -4.859985,-0.359009 -6.263977,1.691986c-1.476013,2.016022 -2.268005,5.401001 -2.376007,10.296021l0,0z" id="path29" fill-rule="evenodd" fill="#EECFB4"/>
   <path d="m89.459,167.783997c0.288002,12.132004 -1.835999,22.968002 -6.372002,33.192001c-4.608002,10.223999 -12.456001,21.600006 -20.915997,27.324005c-8.640003,5.580002 -22.356003,11.627991 -30.024002,5.903992c-7.703999,-6.011993 -11.519999,-30.167999 -15.48,-40.931992c-4.068,-10.727997 -7.271999,-16.056 -8.208,-23.220001c-0.936,-7.272003 -1.691999,-13.572006 2.736,-20.016006c4.464001,-6.479996 12.168001,-12.707993 23.652,-18.68399l0,0c0.18,-7.920006 2.051998,-14.112007 5.472,-19.116005c3.456001,-5.003998 8.315998,-8.388 15.012001,-10.440002l0,0c-0.108002,-12.059998 3.132,-21.528 9.574997,-28.692001c6.553001,-7.199997 15.984001,-11.807995 29.124001,-14.111996l0,0c7.452003,-10.836002 15.013,-19.080002 23.221001,-25.02c8.136002,-5.940001 16.523003,-9.431999 25.452003,-10.476l0,0c5.326996,-8.208 12.274994,-13.968 21.419998,-17.28c9.179993,-3.312 23.615005,-2.88 32.759995,-2.736c9.072006,-0.036 16.416,1.152 20.916,2.736c4.355011,1.512 5.975998,3.636 5.003998,6.372l0,0c11.664001,-5.508 22.320007,-9.108 32.796005,-10.944c10.440002,-1.908 20.196014,-2.412 29.123993,0c8.748016,2.376 16.345001,6.948 23.184998,14.112l0,0c11.160004,-0.467999 20.700012,1.332 29.160004,5.004001c8.424011,3.851999 15.442993,9.431999 20.916016,17.316c5.291992,7.740009 8.927979,17.099998 10.906982,28.656002l0,0c11.305023,6.984001 20.231995,13.32 27.324005,19.584c7.056,6.119995 10.944,9.755997 14.580017,17.279999c3.383972,7.416 3.779999,20.556 6.335999,27.323997c2.59198,6.660004 5.903992,6.048004 9.108002,12.744003c3.059998,6.660004 8.099976,19.440002 9.574982,26.819992c1.403992,7.272003 -1.11499,11.088013 -0.898987,16.848007c0.106995,5.688004 3.347992,9.143997 1.799988,17.315994c-1.764008,8.172012 -6.299988,23.616013 -11.376007,30.924011c-5.220001,7.019989 -11.951996,11.231995 -18.647003,11.375992c-6.695984,-0.035995 -13.355988,-6.587997 -20.951996,-10.908005c-7.812988,-4.427994 -19.29599,-10.079987 -25.020996,-15.011993c-5.687988,-5.039993 -7.703979,-9.251999 -9.106995,-14.580002c-1.549011,-5.399994 -1.549011,-11.015991 0,-17.279999l0,0c-7.70401,-3.636002 -13.428986,-6.731995 -17.747986,-9.576004c-4.320007,-2.87999 -6.805023,-5.255997 -7.740021,-7.271988l0,0c-9.971985,-2.124008 -16.919983,-3.996002 -21.384003,-5.472c-4.428986,-1.512009 -6.048004,-2.772003 -5.003998,-3.636002l0,0c-9.144989,-0.756012 -16.955994,-2.59201 -24.119995,-5.904007c-7.127991,-3.311996 -13.067993,-7.811996 -18.216003,-13.643997l0,0c-10.513,1.548004 -18.756989,-0.251999 -25.020996,-5.940002c-6.264999,-5.723999 -10.259995,-14.795998 -12.276001,-27.755997l0,0l-17.315002,-3.636002l0,0c-4.140991,8.856003 -9.575989,15.587997 -16.848999,20.484001c-7.307999,4.896004 -18.143997,7.956001 -26.388,8.639992c-8.243988,0.540009 -15.731995,-1.332001 -22.751999,-5.472l0,0c-2.375992,6.408005 -5.255997,12.132004 -8.639999,17.31601c-3.420998,5.220001 -5.473,10.043991 -11.844994,13.643997c-6.587006,3.348007 -15.263,5.723007 -26.855003,6.839996l0,0z" id="path37" stroke-miterlimit="10" stroke-width="0.036" stroke="black" fill-rule="evenodd"/>
   <path d="m83.390999,161.580002c1.403999,11.627991 0.036003,22.356003 -4.103996,32.328003c-4.32,10.043991 -13.248001,21.455994 -20.952003,27.287994c-7.812,5.652008 -18.323997,11.339996 -25.02,6.371994c-6.659998,-5.291992 -10.871998,-26.423996 -14.579998,-36.863998c-3.996,-10.403992 -7.092001,-17.819992 -8.172001,-25.019989c-1.116,-7.272003 -1.8,-12.600006 2.268001,-18.216003c4.176,-5.652008 11.376,-10.764008 22.284001,-15.479996l0,0c0.179996,-7.920006 2.051998,-14.112007 5.472,-19.116005c3.455997,-5.004005 8.315998,-8.388 15.011997,-10.440002l0,0c-0.107998,-12.059998 3.132,-21.528 9.576004,-28.692001c6.551994,-7.199997 15.983994,-11.807999 29.124001,-14.112l0,0c7.343994,-10.835999 15.084,-19.079998 23.219994,-25.019997c8.101006,-5.940002 16.596008,-9.432001 25.488007,-10.476002l0,0c5.255997,-8.208 12.23999,-13.968 21.384003,-17.28c9.071991,-3.348 24.479996,-2.448 32.759995,-2.736c8.136993,-0.468 12.852997,-1.152 16.380005,0.468c3.491989,1.62 4.968994,4.608 4.571991,9.108l0,0c14.14801,-5.76 26.460007,-9.468 37.765015,-11.412c11.194977,-1.98 20.951996,-2.304 29.123993,0c8.027008,2.34 14.398987,6.768 19.115997,13.68l0,0c14.075012,0.287999 25.056,2.051999 33.227997,5.436c8.063995,3.276001 11.052002,7.308001 15.479004,14.580002c4.355988,7.199997 7.992004,16.703999 10.90799,28.656002l0,0c11.231995,6.983994 20.231995,13.32 27.287994,19.584c7.057007,6.119995 10.944,9.755997 14.580017,17.279999c3.384003,7.416 3.743988,20.556 6.372009,27.324005c2.59198,6.659988 5.903992,6.047989 9.108002,12.743988c3.095978,6.73201 8.026978,18.64801 9.539978,26.856003c1.367004,8.063995 -1.009003,15.695999 -0.899994,21.384003c0.108002,5.507996 2.556,5.291992 1.368011,11.843994c-1.368011,6.552002 -4.680023,21.024002 -9.108002,27.28801c-4.5,6.192001 -11.052002,9.431992 -17.279022,9.575989c-6.264984,-0.179993 -12.995972,-5.687988 -20.052979,-9.575989c-7.164001,-3.888 -16.992004,-8.568008 -22.283997,-13.212006c-5.220001,-4.716003 -7.703003,-9.287994 -9.107025,-14.544006c-1.547974,-5.399994 -1.547974,-11.015991 0,-17.279999l0,0c-8.603973,-5.039993 -14.939972,-9 -19.547974,-12.311996c-4.536011,-3.311996 -7.164001,-5.688004 -7.740021,-7.272003l0,0c-5.615997,0.072006 -10.619995,-0.68399 -15.011993,-2.26799c-4.463989,-1.584 -8.171997,-4.068008 -11.411987,-7.307999l0,0c-10.007996,0.395996 -18.503998,-0.720001 -25.920013,-3.636002c-7.451996,-2.952011 -13.393005,-7.452011 -18.216003,-13.643997l0,0c-9.827988,2.627991 -17.567993,1.115997 -23.220993,-4.536011c-5.723999,-5.795982 -9.360001,-15.479996 -10.908005,-29.591995l0,0l-22.751999,-5.472l0,0c-3.384003,9 -8.496002,15.984001 -15.479004,20.951996c-7.199997,4.968002 -18.035995,7.992004 -26.388992,8.640007c-8.244003,0.539993 -15.731003,-1.332001 -22.751999,-5.472l0,0c-4.031006,7.271996 -7.848015,13.64399 -11.844002,19.11599c-4.031998,5.436005 -5.435997,10.116013 -11.844002,13.644012c-6.587997,3.347 -15.299995,5.722992 -26.82,6.839996l0,0z" id="path39" fill-rule="evenodd" fill="#49322a"/>
   <path d="m199.619003,102.695c2.015991,-4.428001 4.030991,-9.288002 5.903,-15.012001c1.800003,-5.795998 4.645004,-12.024002 5.472992,-19.115997c0.792007,-7.308002 -0.108002,-18.252003 -0.468994,-23.688c-0.468002,-5.436001 -2.412003,-7.524002 -1.800003,-8.640003c0.540009,-1.295998 4.428009,-0.935997 5.436996,1.368c0.899002,2.304001 0.504013,6.768002 0.468002,12.276001c0.036011,5.472 0.251999,13.68 -0.468002,20.051998c-0.936996,6.228004 -2.627991,11.484001 -4.535995,17.279999c-1.908005,5.760002 -4.141006,11.196007 -6.839996,16.848007l0,0c-1.044006,-0.432007 -2.089005,-0.899002 -3.167999,-1.368004l0,0z" id="path41" stroke-miterlimit="10" stroke-width="0.036" stroke="black" fill-rule="evenodd"/>
   <path d="m220.535004,15.323c0.106995,3.167999 -0.28801,6.191999 -0.900009,9.072001c-0.863998,2.879999 -3.131989,6.732 -3.203995,8.208c0.035995,1.368 1.800003,1.368 3.203995,0c1.26001,-1.656 3.744003,-5.940001 4.536011,-9.108c0.646988,-3.132 0.503998,-6.264 -0.432999,-9.540001l0,0c-1.044006,0.433 -2.124008,0.9 -3.203003,1.368l0,0z" id="path43" stroke-miterlimit="10" stroke-width="0.036" stroke="black" fill-rule="evenodd"/>
   <path d="m233.746994,34.872002c2.556,-3.132002 6.804001,-6.012001 12.744003,-8.640001c5.938995,-2.808001 14.868011,-6.156 22.752014,-7.272001c7.811981,-1.188 18.106995,-1.584 23.651001,0.900002c5.436981,2.519999 8.172974,7.128 8.640991,14.112l0,0c4.824005,0.647999 9.251984,1.655998 13.679993,3.167999c4.356018,1.368 10.115997,2.771999 12.276001,5.472c1.979004,2.664001 0.503998,8.892002 0,10.476002c-0.575989,1.295998 -2.557007,-0.288002 -3.167999,-1.836002c-0.721008,-1.619999 0.540009,-5.472 -0.937012,-7.271999c-1.547974,-1.835999 -3.995972,-2.591999 -8.171997,-3.63599c-4.283997,-1.152 -9.755981,-2.268009 -16.847992,-3.20401l0,0c0.791992,-5.255999 -0.071991,-9.143999 -2.735992,-11.807999c-2.808014,-2.628 -8.136017,-3.852001 -13.212006,-4.104c-5.075989,-0.396 -11.231995,0.431999 -16.812012,1.799999c-5.760986,1.296 -12.348984,3.780001 -16.848984,5.940001c-4.60701,2.052 -7.344009,3.996 -10.008011,6.372c-2.699997,2.231998 -4.391998,6.408001 -5.903992,7.271999c-1.727997,0.720001 -3.779999,-1.007999 -3.671997,-2.26799c0.144989,-1.368 1.621994,-3.060009 4.57399,-5.472l0,0l0,-0.000008z" id="path45" stroke-miterlimit="10" stroke-width="0.036" stroke="black" fill-rule="evenodd"/>
   <path d="m242.386993,69c3.456009,-1.692001 10.908005,-4.428001 20.016998,-5.004002c8.891998,-0.647999 23.76001,-0.143997 33.227997,1.368c9.252014,1.440002 15.732025,4.716003 22.752014,7.739998c6.984009,2.988007 14.652008,5.652 19.115997,10.476006c4.320007,4.751999 4.932007,12.671997 6.839996,18.215996c1.835999,5.543999 1.584015,11.556 4.104004,14.543999c2.339996,2.772003 6.515991,2.232002 10.438995,2.268005c3.996002,-0.18 8.532013,-3.132004 13.212006,-2.736c4.571991,0.360001 10.619995,1.764 14.112,5.040001c3.347992,3.276001 5.544006,11.483994 5.903992,14.076004c0.179993,2.339996 -2.772003,2.627991 -4.53598,0.467987c-1.765015,-2.26799 -3.097015,-10.655991 -6.372009,-13.21199c-3.492004,-2.520004 -10.187988,-2.016006 -14.112,-1.800003c-3.959991,0.143997 -6.227997,2.952003 -9.575989,2.736c-3.563019,-0.360001 -8.315002,-1.727997 -10.907013,-4.104004c-2.664001,-2.447998 -2.881012,-5.183998 -4.536011,-10.007996c-1.800995,-5.003998 -1.548004,-13.968002 -5.472992,-19.115997c-4.031006,-5.148003 -10.727997,-8.352005 -17.747986,-11.844002c-7.128021,-3.744003 -16.271027,-7.667999 -24.120026,-9.540001c-7.990997,-1.835999 -15.442993,-1.512001 -22.751984,-1.368004c-7.343994,0.108002 -15.515991,0.576004 -20.483002,1.800003c-5.003998,1.152 -7.667999,4.896004 -9.108002,5.003998c-1.585007,-0.107994 -3.384995,-3.348999 -0.001007,-5.003998l0,0z" id="path47" stroke-miterlimit="10" stroke-width="0.036" stroke="black" fill-rule="evenodd"/>
   <path d="m357.983002,177.322998c1.942993,1.512009 7.667999,3.132004 9.106995,6.372009c1.368011,3.203995 -1.656006,7.919998 -0.898987,12.743988c0.720001,4.751999 3.311981,12.960007 5.003998,15.480011c1.511993,2.231995 4.031006,1.079987 4.066986,-1.368011c-0.179993,-2.483994 -4.139984,-8.927994 -4.53598,-13.21199c-0.540009,-4.5 3.636993,-8.748001 1.835999,-12.744003c-1.907013,-4.031998 -9.863007,-9.143997 -12.743011,-10.908005c-2.880005,-1.763992 -4.355988,-0.179993 -4.571991,0.468002c-0.252014,0.540009 0.612,1.548996 2.735992,3.167999l0,0z" id="path49" stroke-miterlimit="10" stroke-width="0.036" stroke="black" fill-rule="evenodd"/>
   <path d="m419.434998,209.651001c-0.251984,2.628006 -1.548004,10.115997 -4.570984,13.175995c-3.20401,3.059998 -11.845001,4.824005 -14.112,5.003998c-2.304016,-0.035995 -1.223999,-3.311996 0.467987,-4.535995c1.548004,-1.259995 6.804993,-1.151993 9.108002,-2.735992c2.195984,-1.728012 3.527985,-4.932007 4.536011,-7.272003c0.827972,-2.412003 0.68399,-6.264008 1.366974,-6.839996c0.791016,-0.575012 3.348022,0.396988 3.20401,3.203995l0,0z" id="path51" stroke-miterlimit="10" stroke-width="0.036" stroke="black" fill-rule="evenodd"/>
   <path d="m229.175003,85.848c2.087997,0.863998 7.632004,4.32 11.375992,9.108002c3.744003,4.68 5.544006,14.760002 10.944,19.115997c5.399017,4.211998 14.364014,4.211998 20.916016,6.372002c6.515991,1.907997 12.059998,2.952003 17.315002,5.903999c4.968994,3.060005 7.127991,8.963997 12.743988,12.275993c5.507996,3.132004 17.101013,5.040009 20.484009,6.840012c3.23999,1.727997 3.131989,4.139999 -0.468018,3.636002c-3.707977,-0.64801 -14.903992,-3.852005 -20.951996,-7.272003c-6.119995,-3.600006 -8.352997,-10.367996 -15.011993,-13.643997c-6.841003,-3.240005 -18.792999,-4.248009 -25.020996,-5.940002c-6.228012,-1.800003 -8.460007,-1.800003 -11.844009,-5.004005c-3.384003,-3.456001 -5.147995,-10.403999 -8.640991,-15.012001c-3.779007,-4.607994 -11.195999,-9.539993 -13.212006,-12.275993c-1.977005,-2.808006 -0.824997,-4.969002 1.371002,-4.104004l0,0z" id="path53" stroke-miterlimit="10" stroke-width="0.036" stroke="black" fill-rule="evenodd"/>
   <path d="m184.139008,67.198997c-5.904007,13.536003 -11.448013,23.112 -17.31601,29.124001c-5.903,5.868004 -12.311996,5.723999 -17.278992,6.372002c-4.933014,0.540001 -9.072006,-0.575996 -12.276001,-3.204002l0,0c-3.815002,7.344002 -8.388,13.212006 -14.112007,17.748001c-5.759995,4.464005 -14.326996,7.452003 -20.015999,9.108002c-5.795998,1.475998 -11.844002,-0.360001 -14.112,0.468002c-2.195,0.899994 -2.446999,3.852005 0.900002,4.535995c3.239998,0.540009 12.888,-0.108002 18.647995,-1.367996c5.688004,-1.440002 10.476006,-2.880005 15.479004,-6.804001c4.967995,-3.959999 9.540001,-9.576004 14.112007,-16.848l0,0c6.76799,2.664001 13.391998,2.951996 20.015991,0.468002c6.660004,-2.556007 14.615997,-9.144005 19.584,-15.048004c4.824005,-5.975998 8.460007,-15.839996 9.540009,-20.015999c1.043991,-4.139 0.035995,-5.652 -3.167999,-4.536003l0,0z" id="path55" stroke-miterlimit="10" stroke-width="0.036" stroke="black" fill-rule="evenodd"/>
   <path d="m196.414993,46.715c-2.735992,-4.391998 -6.371994,-7.632 -10.90799,-9.576c-4.608002,-2.088001 -11.916,-3.815998 -16.380005,-2.268002c-4.5,1.512001 -7.992004,5.256001 -10.477005,11.376003l0,0c-13.895996,2.087997 -23.18399,4.967999 -28.690994,8.639999c-5.400002,3.635998 -6.659996,7.992001 -3.637001,13.211998l0,0c-9.646996,0.863998 -17.136002,2.736 -22.751999,5.903999c-5.760002,3.096001 -8.423996,11.052002 -10.906998,12.744003c-2.484001,1.512001 -4.860001,-0.468002 -3.637001,-3.167999c1.115997,-2.844002 5.400002,-9.972 10.907997,-13.212006c5.543999,-3.275993 12.601006,-5.399994 21.853004,-6.371998l0,0c-0.864006,-4.427998 0.143997,-7.883999 3.167999,-10.907997c2.950996,-2.988003 9.431992,-5.220001 14.580002,-6.84c5.039993,-1.728001 10.151001,-2.736 15.479004,-3.168003l0,0c1.115997,-5.903999 4.103989,-9.755997 9.107986,-11.843998c4.932007,-2.016001 14.723999,-2.124001 20.483002,-0.468c5.652008,1.511999 11.628006,6.839998 13.645004,9.575998c1.944,2.629002 1.332993,4.753002 -1.835007,6.372002l0,0z" id="path57" stroke-miterlimit="10" stroke-width="0.036" stroke="black" fill-rule="evenodd"/>
   <path d="m73.546997,167.315002c-0.360001,3.779999 -2.736,12.852005 -6.839996,20.015991c-4.284,7.09201 -14.832001,19.440002 -18.18,22.320007c-3.383999,2.699997 -2.880001,-3.671997 -1.835999,-5.940002c0.935997,-2.412003 5.039997,-4.716003 7.739998,-8.171997c2.664001,-3.456009 5.723,-7.703995 8.208,-12.744003c2.339996,-5.291992 4.031998,-15.623993 5.903999,-18.216003c1.800003,-2.626999 5.220001,-1.115997 5.003998,2.736008l0,0z" id="path59" stroke-miterlimit="10" stroke-width="0.036" stroke="black" fill-rule="evenodd"/>
   <path d="m140.434998,140.459c1.944,1.223999 6.73201,2.412003 10.477005,2.736008c3.599991,0.107986 9.358994,-0.540009 10.906998,-1.368011c1.332001,-0.899994 0.251999,-3.131989 -2.268005,-3.636002c-2.591995,-0.647995 -9.431992,0.792007 -12.743988,0.432007c-3.456009,-0.395996 -6.156006,-3.059998 -7.271011,-2.699997c-1.116989,0.360001 -1.04599,3.167999 0.899002,4.535995l0,0z" id="path61" stroke-miterlimit="10" stroke-width="0.036" stroke="black" fill-rule="evenodd"/>
   <path d="m170.026001,137.292007c-0.647003,-0.504013 -4.104004,1.223999 -4.104004,2.26799c-0.035995,0.863998 2.844009,3.492004 3.636002,3.167999c0.613007,-0.432999 1.044998,-4.932999 0.468002,-5.435989l0,0z" id="path63" stroke-miterlimit="10" stroke-width="0.036" stroke="black" fill-rule="evenodd"/>
   <path d="m208.259003,118.176003c0.468002,3.348 2.987991,12.348 7.270996,17.279991c4.212997,4.78801 14.473007,10.152008 17.749008,11.376007c3.022995,1.007996 3.131989,-2.124008 0.898987,-4.535995c-2.447998,-2.412003 -10.90799,-5.14801 -14.543991,-9.576004c-3.600006,-4.608002 -5.003998,-14.903999 -6.839996,-17.279999c-2.016006,-2.449005 -5.003006,-0.612 -4.535004,2.736l0,0z" id="path65" stroke-miterlimit="10" stroke-width="0.036" stroke="black" fill-rule="evenodd"/>
   <path fill="black" d="m239.651001,147.298996c-0.647995,0.720001 0.106995,3.708008 0.899002,4.536011c0.755997,0.719986 2.951996,0.719986 3.671997,0c0.612,-0.828003 0.612,-3.81601 0,-4.536011c-0.826996,-0.791992 -3.923004,-0.791992 -4.570999,0l0,0z" id="path67" stroke-miterlimit="10" stroke-width="0.036" stroke="black" fill-rule="evenodd"/>
   <path d="m246.923004,149.567001c-0.612,0.720001 0.071991,3.707993 0.936996,4.535995c0.647003,0.720001 3.059998,0.720001 3.636002,0c0.612,-0.828003 0.612,-3.815994 0,-4.535995c-0.792999,-0.792007 -4.033005,-0.792007 -4.572998,0l0,0z" id="path69" stroke-miterlimit="10" stroke-width="0.036" stroke="black" fill-rule="evenodd"/>
   <path d="m329.759003,146.832001c-0.612,0.720001 0.071991,3.707993 0.937012,4.535995c0.646973,0.720001 3.059998,0.720001 3.635986,0c0.612,-0.828003 0.612,-3.815994 0,-4.535995c-0.792999,-0.792007 -4.03299,-0.792007 -4.572998,0l0,0z" id="path71" stroke-miterlimit="10" stroke-width="0.036" stroke="black" fill-rule="evenodd"/>
   <path d="m391.210999,141.828003c-0.64801,0.720001 0.108002,3.707993 0.899994,4.535995c0.647003,0.720001 3.059998,0.720001 3.636017,0c0.612,-0.828003 0.612,-3.815994 0,-4.535995c-0.828003,-0.792007 -3.960022,-0.792007 -4.536011,0l0,0z" id="path73" stroke-miterlimit="10" stroke-width="0.036" stroke="black" fill-rule="evenodd"/>
   <path d="m400.751007,175.955994c-0.612,0.720001 0.071991,3.708008 0.936005,4.536011c0.64798,0.720001 3.060974,0.720001 3.636993,0c0.610992,-0.828003 0.610992,-3.81601 0,-4.536011c-0.792999,-0.791992 -4.03302,-0.791992 -4.572998,0l0,0z" id="path75" stroke-miterlimit="10" stroke-width="0.036" stroke="black" fill-rule="evenodd"/>
   <path d="m40.319,213.720001c-0.647999,0.684006 0.107998,3.779999 0.900002,4.572006c0.755997,0.719986 2.952,0.719986 3.671997,0c0.612,-0.792007 0.612,-3.888 0,-4.572006c-0.827999,-0.792007 -3.924,-0.792007 -4.571999,0l0,0z" id="path77" stroke-miterlimit="10" stroke-width="0.036" stroke="black" fill-rule="evenodd"/>
   <path d="m321.22699,494.230988c-3.490997,2.521027 -13.679993,8.064026 -20.411987,11.376007c-6.946991,3.313019 -16.847992,7.487976 -19.979004,8.208008c-2.988007,0.432007 -1.691986,-2.376007 1.944,-4.679993c3.635986,-2.376007 12.635986,-5.400024 19.223999,-8.641022c6.40799,-3.203979 15.660004,-9.395996 19.007996,-10.402985c3.239014,-1.11499 3.455017,1.513 0.214996,4.139984l0,0z" id="path79" stroke-miterlimit="10" stroke-width="0.036" stroke="black" fill-rule="evenodd"/>
   <path d="m327.707001,488.938995c1.26001,-0.503998 5.615997,-3.23999 6.264008,-4.320007c0.432983,-1.187988 -1.403015,-2.807983 -2.735016,-2.339996c-1.332001,0.360016 -4.355988,3.744019 -4.895996,4.895996c-0.648987,1.152008 0.035004,2.016022 1.367004,1.764008l0,0z" id="path81" stroke-miterlimit="10" stroke-width="0.036" stroke="black" fill-rule="evenodd"/>
   <path d="m269.927002,517.848022c1.403992,-0.14502 6.156006,-1.584045 7.164001,-2.520996c0.828003,-1.008057 -0.720001,-3.02301 -2.015991,-2.987c-1.440002,0.106995 -5.112,2.375977 -6.013,3.455994c-0.934998,0.862976 -0.46701,2.052002 0.86499,2.052002l0,0z" id="path83" stroke-miterlimit="10" stroke-width="0.036" stroke="black" fill-rule="evenodd"/>
   <path id="svg_1" d="m104.669502,189.767395c1.403999,11.627991 0.036003,22.356003 -4.103996,32.328003c-4.32,10.043991 -13.248001,21.455994 -20.952003,27.287994c-7.812004,5.652008 -18.323997,11.339996 -25.02,6.371994c-6.66,-5.291992 -10.871998,-26.423996 -14.579998,-36.863998c-3.996002,-10.403992 -7.092003,-17.819992 -8.172001,-25.019989c-1.116001,-7.272003 -1.799999,-12.600006 2.268002,-18.216003c4.175999,-5.652008 11.375999,-10.764008 22.284,-15.479996l0,0c0.179996,-7.920013 2.051998,-14.112015 5.472,-19.116013c3.455997,-5.003998 8.315998,-8.388 15.011997,-10.440002l0,0c-0.108002,-12.05999 3.132004,-21.527992 9.576004,-28.691994c6.551994,-7.199997 15.983994,-11.807999 29.124001,-14.112l0,0c7.343994,-10.835999 15.083992,-19.080002 23.219994,-25.019997c8.100998,-5.940002 16.596008,-9.432003 25.488007,-10.476006l0,0c5.255997,-8.208 12.23999,-13.967999 21.384003,-17.279999c9.071991,-3.348 24.479996,-2.447998 32.759995,-2.736c8.136993,-0.467999 12.852997,-1.151999 16.380005,0.468002c3.491989,1.619999 4.968994,4.607998 4.571991,9.107998l0,0c14.14801,-5.759998 26.459991,-9.467999 37.765015,-11.411999c11.194977,-1.980001 20.951996,-2.304001 29.123993,0c8.027008,2.34 14.398987,6.767998 19.115997,13.68l0,0c14.075012,0.287998 25.056,2.051998 33.227997,5.435997c8.063995,3.276001 11.052002,7.308002 15.479004,14.580002c4.355988,7.199997 7.992004,16.704002 10.90799,28.656006l0,0c11.231995,6.983994 20.231995,13.32 27.287994,19.584c7.057007,6.119995 10.944,9.755997 14.580017,17.279999c3.384003,7.416 3.743988,20.556 6.372009,27.324005c2.59198,6.659988 5.903992,6.047989 9.108002,12.743988c3.095978,6.73201 8.026978,18.64801 9.539978,26.856003c1.367004,8.063995 -1.009003,15.695999 -0.899994,21.384003c0.108002,5.507996 2.556,5.291992 1.368011,11.843994c-1.368011,6.552002 -4.680023,21.024002 -9.108002,27.287994c-4.5,6.192017 -11.052002,9.432007 -17.279022,9.575989c-6.264984,-0.179993 -12.995972,-5.687988 -20.052979,-9.575989c-7.164001,-3.887985 -16.992004,-8.567993 -22.283997,-13.21199c-5.220001,-4.716003 -7.703003,-9.287994 -9.107025,-14.544006c-1.547974,-5.399994 -1.547974,-11.015991 0,-17.279999l0,0c-8.603973,-5.039993 -14.939972,-9 -19.547974,-12.311996c-4.536011,-3.311996 -7.164001,-5.688004 -7.740021,-7.272003l0,0c-5.615997,0.072006 -10.619995,-0.68399 -15.011993,-2.26799c-4.463989,-1.584 -8.171997,-4.068008 -11.411987,-7.307999l0,0c-10.007996,0.395996 -18.503998,-0.720001 -25.920013,-3.636002c-7.451996,-2.952011 -13.393005,-7.452011 -18.216003,-13.643997l0,0c-9.827972,2.627991 -17.567993,1.115997 -23.220993,-4.536011c-5.723999,-5.79599 -9.360001,-15.479996 -10.908005,-29.591995l0,0l-22.751999,-5.472l0,0c-3.384003,9 -8.496002,15.983994 -15.479004,20.951996c-7.199997,4.968002 -18.035995,7.992004 -26.388992,8.639999c-8.244003,0.539993 -15.731003,-1.332001 -22.751999,-5.472l0,0c-4.031006,7.272003 -7.848007,13.643997 -11.844009,19.115997c-4.031982,5.436005 -5.435989,10.116013 -11.843994,13.644012c-6.587997,3.347 -15.299995,5.722992 -26.82,6.839996l0,0z" fill-rule="evenodd" fill="#49322a"/>
   <path id="svg_2" d="m95.553764,255.767395c1.287476,11.627991 0.03302,22.356018 -3.763374,32.328003c-3.961449,10.044006 -12.148445,21.455994 -19.213028,27.287994c-7.163628,5.652008 -16.803146,11.339996 -22.943394,6.371979c-6.107239,-5.291992 -9.96965,-26.423981 -13.369892,-36.863983c-3.664345,-10.403992 -6.503384,-17.819977 -7.493744,-25.019989c-1.023376,-7.272003 -1.650604,-12.600006 2.079762,-18.216003c3.829399,-5.652008 10.431816,-10.764008 20.434483,-15.479996l0,0c0.165051,-7.919998 1.881683,-14.112015 5.017834,-19.116013c3.169155,-5.003998 7.625786,-8.388 13.766033,-10.440002l0,0c-0.099037,-12.059998 2.872055,-21.527985 8.781212,-28.691986c6.008194,-7.200012 14.657364,-11.808014 26.706779,-14.112l0,0c6.734459,-10.835999 13.832054,-19.080002 21.292786,-25.020004c7.428627,-5.940002 15.218575,-9.431999 23.372551,-10.475998l0,0c4.819763,-8.208008 11.224106,-13.968002 19.609177,-17.280006c8.319046,-3.348 22.448212,-2.447998 30.040985,-2.736c7.461655,-0.467995 11.78624,-1.152 15.020508,0.468002c3.202164,1.620003 4.55658,4.608002 4.19252,9.108002l0,0c12.973755,-5.760002 24.26387,-9.468002 34.6306,-11.412003c10.265823,-1.979996 19.213028,-2.304001 26.706772,0c7.360779,2.340004 13.203888,6.768005 17.529419,13.68l0,0c12.906799,0.288002 22.97641,2.052002 30.470154,5.435997c7.394684,3.276001 10.134705,7.308006 14.194275,14.580002c3.994446,7.199997 7.328674,16.70401 10.002655,28.656006l0,0c10.299744,6.983994 18.552765,13.320007 25.023132,19.584c6.471283,6.119995 10.035675,9.755997 13.369904,17.279999c3.103149,7.416 3.433258,20.556 5.84317,27.324005c2.376831,6.659988 5.413971,6.047989 8.352051,12.743988c2.83902,6.73201 7.360748,18.64801 8.748169,26.856003c1.25354,8.063995 -0.925262,15.696014 -0.825287,21.384003c0.09903,5.507996 2.343842,5.291992 1.254456,11.843994c-1.254456,6.552002 -4.291595,21.023987 -8.352051,27.288025c-4.126495,6.191986 -10.134705,9.431976 -15.84491,9.575989c-5.744995,-0.179993 -11.917328,-5.687988 -18.388611,-9.575989c-6.569397,-3.888 -15.581696,-8.568024 -20.434479,-13.212036c-4.786743,-4.716003 -7.06366,-9.287964 -8.351166,-14.544006c-1.419495,-5.399963 -1.419495,-11.015991 0,-17.279968l0,0c-7.889862,-5.040009 -13.699982,-9 -17.925537,-12.312012c-4.159515,-3.312012 -6.569397,-5.687988 -7.097595,-7.272003l0,0c-5.149902,0.071991 -9.738586,-0.68399 -13.766052,-2.267975c-4.093475,-1.584015 -7.493744,-4.068024 -10.464813,-7.308014l0,0c-9.177338,0.395996 -16.968201,-0.720001 -23.768707,-3.636002c-6.833496,-2.952011 -12.281403,-7.452011 -16.704117,-13.643997l0,0c-9.012268,2.627991 -16.109894,1.115997 -21.293686,-4.536011c-5.248917,-5.79599 -8.58316,-15.479996 -10.002686,-29.591995l0,0l-20.863632,-5.472l0,0c-3.103134,9 -7.790848,15.984009 -14.194275,20.951996c-6.602417,4.968002 -16.539047,7.992004 -24.198761,8.640015c-7.559769,0.539978 -14.425369,-1.332001 -20.863632,-5.472015l0,0c-3.696442,7.272003 -7.19664,13.643997 -10.860992,19.115997c-3.697327,5.436005 -4.98481,10.116013 -10.860962,13.644012c-6.041206,3.347 -14.030121,5.722992 -24.594002,6.839996l0,0z" fill-rule="evenodd" fill="#49322a"/>
   <path id="svg_3" d="m122.370712,292.997284c1.074394,7.814575 0.027557,15.024353 -3.140518,21.726013c-3.305809,6.750061 -10.137833,14.419495 -16.033203,18.338898c-5.97802,3.798431 -14.022163,7.621002 -19.146172,4.282288c-5.096474,-3.556488 -8.319633,-17.75824 -11.157127,-24.774445c-3.057884,-6.992004 -5.427048,-11.975891 -6.253502,-16.814636c-0.854004,-4.887177 -1.377419,-8.467865 1.735558,-12.242096c3.195625,-3.798401 8.705307,-7.233917 17.05249,-10.40332l0,0c0.137741,-5.322632 1.570267,-9.483978 4.18737,-12.846893c2.644646,-3.362946 6.363686,-5.637161 11.487694,-7.016205l0,0c-0.082642,-8.104904 2.396729,-14.46788 7.327896,-19.282425c5.013817,-4.838776 12.231514,-7.935577 22.286713,-9.483978l0,0c5.619873,-7.282333 11.542786,-12.822693 17.768738,-16.814682c6.199173,-3.991974 12.699844,-6.338776 19.504303,-7.04039l0,0c4.022095,-5.51619 9.366486,-9.387192 16.3638,-11.613007c6.9422,-2.250031 18.732941,-1.645187 25.069077,-1.83873c6.22673,-0.314514 9.835571,-0.774216 12.534561,0.314529c2.672211,1.088715 3.802444,3.096786 3.498642,6.121017l0,0c10.826553,-3.871002 20.248108,-6.362961 28.899109,-7.669434c8.566803,-1.330658 16.033203,-1.548416 22.286682,0c6.142548,1.572601 11.018616,4.548431 14.628235,9.193634l0,0c10.770691,0.193542 19.173737,1.379044 25.427216,3.653259c6.170868,2.20163 8.457397,4.911331 11.845093,9.798492c3.333344,4.838745 6.115753,11.225906 8.347168,19.25824l0,0c8.595123,4.693604 15.482239,8.951706 20.881744,13.161423c5.400269,4.112946 8.374695,6.556534 11.157104,11.613022c2.589569,4.983917 2.865051,13.814636 4.876099,18.363068c1.98349,4.47583 4.517944,4.064545 6.969757,8.564606c2.369171,4.524261 6.142517,12.53241 7.300323,18.048553c1.046082,5.419403 -0.772125,10.548492 -0.688721,14.371124c0.082672,3.70166 1.955933,3.556488 1.046875,7.959747c-1.046875,4.403259 -3.581329,14.12915 -6.969757,18.338898c-3.443573,4.161316 -8.457397,6.338745 -13.222534,6.435547c-4.794159,-0.120972 -9.944946,-3.822632 -15.345215,-6.435547c-5.482147,-2.612946 -13.002869,-5.758148 -17.052521,-8.87912c-3.994507,-3.169403 -5.894592,-6.242004 -6.968994,-9.774292c-1.18457,-3.629059 -1.18457,-7.40329 0,-11.613007l0,0c-6.584076,-3.387146 -11.432587,-6.048462 -14.958801,-8.274292c-3.4711,-2.22583 -5.482117,-3.822601 -5.922913,-4.887146l0,0c-4.297577,0.04837 -8.126801,-0.459656 -11.487701,-1.5242c-3.416016,-1.064514 -6.25351,-2.733887 -8.73288,-4.911316l0,0c-7.658478,0.266113 -14.159882,-0.483887 -19.834869,-2.443604c-5.702545,-1.983887 -10.24881,-5.008118 -13.939545,-9.169434l0,0c-7.520706,1.766144 -13.443634,0.750031 -17.769485,-3.048431c-4.380219,-3.895172 -7.162613,-10.40332 -8.347214,-19.887268l0,0l-17.410614,-3.67746l0,0c-2.589554,6.048431 -6.501434,10.742035 -11.845078,14.08078c-5.509674,3.338745 -13.801758,5.371002 -20.193771,5.806488c-6.308594,0.362915 -12.037918,-0.895172 -17.410629,-3.67746l0,0c-3.084656,4.887177 -6.005569,9.169464 -9.063446,12.846924c-3.085419,3.653259 -4.159805,6.798462 -9.063431,9.169464c-5.041367,2.249359 -11.708084,3.8461 -20.523605,4.596802l0,0z" fill-rule="evenodd" fill="#49322a"/>
   <path transform="rotate(176.8872833251953 235.0835418701172,249.10824584960938) " id="svg_4" d="m108.328506,295.2341c1.297462,12.773804 0.033272,24.55896 -3.792564,35.51355c-3.99218,11.033752 -12.242699,23.570251 -19.362091,29.976929c-7.2192,6.208954 -16.933502,12.457428 -23.121387,6.999847c-6.154617,-5.813446 -10.046993,-29.02774 -13.473618,-40.49646c-3.692768,-11.42923 -6.553833,-19.575958 -7.551872,-27.485443c-1.031319,-7.988586 -1.663414,-13.841614 2.09589,-20.010986c3.859116,-6.208984 10.512749,-11.824677 20.59301,-17.005341l0,0c0.166336,-8.700455 1.896286,-15.50264 5.05677,-20.99971c3.193741,-5.497101 7.684944,-9.214539 13.872826,-11.46875l0,0c-0.099808,-13.248383 2.894333,-23.649323 8.849342,-31.519257c6.054794,-7.909485 14.771072,-12.971558 26.913971,-15.502579l0,0c6.786705,-11.903763 13.939362,-20.960114 21.457962,-27.485443c7.486267,-6.525314 15.336655,-10.361435 23.553894,-11.508286l0,0c4.857147,-9.0168 11.311172,-15.344406 19.761307,-18.982758c8.383575,-3.677902 22.62236,-2.689209 30.274033,-3.0056c7.519531,-0.514114 11.87767,-1.265518 15.137039,0.51413c3.22702,1.779617 4.591919,5.062042 4.225052,10.005478l0,0c13.074402,-6.327576 24.452133,-10.400955 34.899277,-12.536514c10.345459,-2.17511 19.362091,-2.531052 26.913971,0c7.417877,2.570572 13.306335,7.434906 17.665405,15.028015l0,0c13.006927,0.31636 23.154633,2.254181 30.706512,5.971634c7.452087,3.598816 10.213348,8.028122 14.304413,16.016708c4.025421,7.90947 7.385529,18.349991 10.080261,31.479721l0,0c10.379669,7.67218 18.696716,14.632538 25.217255,21.513763c6.521515,6.723053 10.113525,10.717346 13.473633,18.982758c3.127228,8.14679 3.4599,22.581543 5.888489,30.016464c2.395294,7.316284 5.455963,6.643982 8.41684,13.999786c2.861053,7.395355 7.417877,20.485565 8.816071,29.50235c1.263275,8.858612 -0.932434,17.242676 -0.831696,23.49115c0.099792,6.05072 2.36203,5.813477 1.264191,13.011078c-1.264191,7.197632 -4.32489,23.095642 -8.41684,29.976959c-4.158539,6.802124 -10.213348,10.36142 -15.967834,10.519592c-5.789581,-0.197723 -12.009796,-6.248474 -18.531281,-10.519592c-6.620392,-4.271118 -15.702606,-9.412292 -20.593018,-14.513947c-4.823883,-5.180695 -7.118469,-10.203186 -8.415955,-15.977142c-1.430511,-5.932068 -1.430511,-12.101471 0,-18.982727l0,0c-7.95108,-5.536621 -13.806274,-9.886841 -18.064606,-13.525208c-4.191803,-3.638397 -6.620361,-6.248505 -7.152679,-7.988586l0,0c-5.189819,0.079071 -9.814087,-0.751373 -13.872803,-2.491455c-4.125275,-1.740082 -7.55188,-4.468872 -10.546021,-8.028107l0,0c-9.248535,0.434998 -17.099854,-0.790955 -23.953094,-3.994293c-6.886536,-3.24292 -12.376709,-8.186371 -16.83371,-14.988464l0,0c-9.082184,2.886932 -16.234894,1.225952 -21.458908,-4.982971c-5.289642,-6.367157 -8.649734,-17.005356 -10.080276,-32.50795l0,0l-21.025513,-6.01123l0,0c-3.127182,9.886871 -7.851257,17.559052 -14.304382,23.016602c-6.653641,5.45755 -16.667358,8.779495 -24.386505,9.491379c-7.618408,0.59317 -14.537262,-1.463257 -21.025482,-6.011215l0,0c-3.725128,7.988571 -7.252472,14.988449 -10.945251,20.99968c-3.726013,5.971619 -5.023483,11.112793 -10.945221,14.988464c-6.088074,3.676819 -14.138969,6.286896 -24.784805,7.513977l0,0z" fill-rule="evenodd" fill="#49322a"/>
  </g>
 </g>
</svg>
